<?xml version="1.0" standalone="no"?><!DOCTYPE svg PUBLIC "-//W3C//DTD SVG 1.1//EN" "http://www.w3.org/Graphics/SVG/1.1/DTD/svg11.dtd"><svg t="1680670619343" class="icon" viewBox="0 0 1024 1024" version="1.1" xmlns="http://www.w3.org/2000/svg" p-id="17432" xmlns:xlink="http://www.w3.org/1999/xlink" width="200" height="200"><path d="M640 42.7H512V128h85.3v85.3H512v85.3h85.3V384H512v85.3h85.3v85.3H512v-85.3h-85.3V384H512v-85.3h-85.3v-85.3H512V128h-85.3V42.7h-256c-23.6 0-42.7 19.1-42.7 42.7v853.3c0 23.6 19.1 42.7 42.7 42.7h682.7c23.6 0 42.7-19.1 42.7-42.7v-640C796 198.7 740 142.6 640 42.7zM597.3 896H426.7V597.3h170.7V896zM640 298.7V128l170.7 170.7H640z" p-id="17433" fill="#2c2c2c"></path></svg>