<?xml version="1.0" standalone="no"?><!DOCTYPE svg PUBLIC "-//W3C//DTD SVG 1.1//EN" "http://www.w3.org/Graphics/SVG/1.1/DTD/svg11.dtd"><svg height="169" legacy-metrics="false" node-id="1" sillyvg="true" template-height="169" template-width="148" version="1.1" viewBox="0 0 148 169" width="148" xmlns="http://www.w3.org/2000/svg" xmlns:xlink="http://www.w3.org/1999/xlink"><defs node-id="31"><linearGradient gradientUnits="objectBoundingBox" id="linearGradient-1" node-id="5" x1="0" x2="1" y1="0.54269487" y2="0.45730513"><stop offset="0" stop-color="#fef260"></stop><stop offset="1" stop-color="#ffc600"></stop></linearGradient><linearGradient gradientUnits="objectBoundingBox" id="linearGradient-2" node-id="8" x1="0.269085" x2="0.730915" y1="0.65146327" y2="0.34853676"><stop offset="0" stop-color="#ffb10a"></stop><stop offset="1" stop-color="#ffc71d"></stop></linearGradient><linearGradient gradientUnits="objectBoundingBox" id="linearGradient-3" node-id="11" x1="0.5" x2="0.5" y1="1" y2="0"><stop offset="0" stop-color="#d61a00"></stop><stop offset="1" stop-color="#ff8372"></stop></linearGradient><linearGradient gradientUnits="objectBoundingBox" id="linearGradient-4" node-id="14" x1="0.04221981" x2="0.9577802" y1="1" y2="0"><stop offset="0" stop-color="#d61a00"></stop><stop offset="1" stop-color="#ff8372"></stop></linearGradient><linearGradient gradientUnits="objectBoundingBox" id="linearGradient-5" node-id="17" x1="0.5" x2="0.5" y1="1" y2="0"><stop offset="0" stop-color="#f84830"></stop><stop offset="1" stop-color="#fea905"></stop></linearGradient></defs><path d="M 12.00 48.00 L 135.00 48.00 C 140.52 48.00 145.00 52.48 145.00 58.00 L 145.00 89.00 C 145.00 94.52 140.52 99.00 135.00 99.00 L 12.00 99.00 C 6.48 99.00 2.00 94.52 2.00 89.00 L 2.00 58.00 C 2.00 52.48 6.48 48.00 12.00 48.00 Z" fill="url(#linearGradient-1)" fill-rule="evenodd" id="圆角矩形-4" node-id="21" stroke="none" target-height="50.999973" target-width="143" target-x="1.999762" target-y="47.99989"></path><path d="M 11.00 99.00 L 137.00 99.00 L 137.00 157.00 C 137.00 162.52 132.52 167.00 127.00 167.00 L 21.00 167.00 C 15.48 167.00 11.00 162.52 11.00 157.00 L 11.00 99.00 Z" fill="url(#linearGradient-2)" fill-rule="evenodd" id="圆角矩形-4-拷贝" node-id="22" stroke="none" target-height="67.99996" target-width="125.999985" target-x="10.999758" target-y="98.999855"></path><path d="M 63.00 99.00 L 82.00 99.00 L 82.00 167.00 L 63.00 167.00 Z" fill="#f84830" fill-rule="evenodd" id="矩形-1" node-id="23" stroke="none" target-height="67.99996" target-width="19.00008" target-x="62.999714" target-y="98.999855"></path><path d="M 115.00 12.00 C 115.00 12.00 122.46 17.44 123.00 23.00 C 123.60 29.12 117.00 35.00 117.00 35.00 C 117.00 35.00 108.76 41.75 99.00 46.00 C 90.46 49.72 81.53 49.99 79.45 50.00 L 79.22 50.00 C 79.20 50.00 79.18 50.00 79.16 50.00 L 79.07 50.00 C 79.02 50.00 79.00 50.00 79.00 50.00 C 79.00 50.00 75.29 49.32 74.00 47.00 C 72.82 44.88 73.94 41.20 74.00 41.01 C 74.00 41.00 74.36 38.90 75.15 35.69 L 75.32 34.98 C 77.45 26.58 82.31 11.72 91.00 6.00 C 100.57 -0.29 115.00 12.00 115.00 12.00 Z M 103.00 16.00 C 102.86 15.96 98.46 14.90 94.00 21.00 C 88.48 28.54 85.00 44.00 85.00 44.00 C 85.00 44.00 85.81 43.65 87.07 43.03 L 87.44 42.84 C 89.18 41.97 91.61 40.64 94.00 39.00 C 97.15 36.84 100.38 33.62 100.92 33.08 L 100.98 33.02 C 100.99 33.01 101.00 33.00 101.00 33.00 C 101.00 33.00 107.01 25.57 107.00 22.00 C 106.98 16.12 103.27 16.00 103.01 16.00 Z" fill="#f84830" fill-rule="evenodd" id="Combined-shape-303" node-id="24" stroke="none" target-height="45.794655" target-width="49.537254" target-x="73.46237" target-y="4.207635"></path><path d="M 74.00 47.00 C 72.82 44.88 73.94 41.20 74.00 41.01 C 74.00 41.00 74.36 38.90 75.15 35.69 L 75.32 34.98 C 77.45 26.58 82.31 11.72 91.00 6.00 C 92.29 5.15 93.68 4.64 95.10 4.39 C 97.63 6.16 101.81 9.43 104.00 13.00 C 106.84 17.65 107.00 21.00 107.00 21.00 L 107.00 21.00 L 106.96 21.04 C 106.57 16.11 103.26 16.00 103.01 16.00 L 103.00 16.00 C 102.86 15.96 98.46 14.90 94.00 21.00 C 88.68 28.27 85.25 42.90 85.01 43.94 C 83.31 45.03 81.27 46.31 80.00 47.00 C 79.92 47.04 79.84 47.09 79.75 47.13 L 79.26 47.40 C 78.15 47.99 77.06 48.54 76.16 48.97 C 75.31 48.51 74.48 47.87 74.00 47.00 Z" fill="url(#linearGradient-3)" fill-rule="evenodd" id="Combined-shape-301" node-id="25" stroke="none" target-height="44.5842" target-width="33.537445" target-x="73.462364" target-y="4.3898892"></path><path d="M 55.08 6.47 L 55.24 6.63 C 55.29 6.68 55.32 6.71 55.32 6.71 C 55.32 6.71 55.34 6.73 55.37 6.78 L 55.44 6.85 C 56.37 7.96 62.63 15.51 66.79 24.41 C 71.07 33.56 71.31 43.29 71.32 44.23 L 71.32 44.28 C 71.32 44.29 71.32 44.30 71.32 44.30 C 71.32 44.30 70.74 48.03 68.45 49.38 C 66.42 50.58 62.86 49.65 62.49 49.55 L 62.46 49.54 C 62.46 49.54 35.51 45.67 27.02 33.47 C 20.47 24.07 32.38 9.32 32.38 9.32 C 32.38 9.32 37.62 1.72 43.16 1.03 C 48.55 0.36 53.90 5.31 55.08 6.47 Z M 42.78 17.05 L 42.59 17.05 C 36.71 17.23 36.69 20.94 36.70 21.20 L 36.70 21.21 C 36.70 21.21 36.70 21.21 36.69 21.22 L 36.69 21.24 C 36.61 21.63 35.91 25.91 41.93 30.08 C 48.22 34.43 59.77 37.27 63.76 38.16 L 64.22 38.26 C 64.82 38.40 65.16 38.46 65.16 38.46 C 65.16 38.46 63.09 33.94 59.93 29.60 C 58.43 27.54 56.46 25.45 55.15 24.14 L 54.88 23.87 C 54.19 23.18 53.74 22.76 53.74 22.76 C 53.74 22.76 46.15 16.95 42.59 17.05 Z" fill="#f84830" fill-rule="evenodd" id="Combined-shape-305" node-id="26" stroke="none" target-height="48.960403" target-width="46.258698" target-x="25.062386" target-y="1.0180521"></path><path d="M 41.59 17.08 L 41.63 17.12 C 36.71 17.64 36.69 20.95 36.70 21.20 L 36.70 21.21 C 36.70 21.21 36.70 21.21 36.69 21.22 L 36.69 21.24 C 36.61 21.63 35.91 25.91 41.93 30.08 C 48.22 34.43 59.77 37.27 63.76 38.16 L 64.22 38.26 C 64.68 38.36 64.98 38.43 65.11 38.45 C 65.43 38.93 65.77 39.44 66.11 39.94 L 66.40 40.39 C 67.14 41.50 67.84 42.59 68.30 43.38 C 69.07 44.72 69.81 46.09 70.37 47.17 C 69.93 48.02 69.32 48.87 68.45 49.38 C 66.42 50.58 62.86 49.65 62.49 49.55 L 62.46 49.54 C 62.46 49.54 35.51 45.67 27.02 33.47 C 26.13 32.20 25.58 30.83 25.30 29.41 C 27.00 26.84 30.16 22.57 33.67 20.29 C 38.24 17.33 41.59 17.08 41.59 17.08 L 41.59 17.08 Z" fill="url(#linearGradient-4)" fill-rule="evenodd" id="Combined-shape-306" node-id="27" stroke="none" target-height="32.897343" target-width="45.071457" target-x="25.299263" target-y="17.081104"></path><path d="M 85.00 99.00 L 61.00 99.00 L 61.00 48.05 C 61.00 48.05 63.07 39.18 73.80 40.06 C 84.53 40.94 84.98 47.57 85.00 48.03 L 85.00 99.00 Z" fill="#f84830" fill-rule="evenodd" id="Combined-shape-297" node-id="28" stroke="none" target-height="58.944195" target-width="24.000134" target-x="60.99973" target-y="40.055683"></path><g node-id="33"><path d="M 104.00 48.00 L 136.00 48.00 C 141.52 48.00 146.00 52.48 146.00 58.00 L 146.00 89.00 C 146.00 94.52 141.52 99.00 136.00 99.00 L 138.00 99.00 L 138.00 157.00 C 138.00 162.52 133.52 167.00 128.00 167.00 L 22.00 167.00 C 16.48 167.00 12.00 162.52 12.00 157.00 L 12.00 149.57 C 14.63 151.01 22.41 154.78 35.00 157.00 C 38.98 157.70 43.33 158.29 47.71 158.78 L 48.90 158.91 C 64.02 160.53 79.00 161.00 79.00 161.00 C 79.00 161.00 124.82 164.43 126.00 123.00 C 126.59 102.34 104.00 99.00 104.00 99.00 C 104.00 99.00 128.15 94.94 127.00 66.00 C 126.36 49.85 104.00 48.00 104.00 48.00 L 104.00 48.00 Z" fill="url(#linearGradient-5)" fill-opacity="0.32" fill-rule="evenodd" group-id="1" id="Combined-shape-323" node-id="29" stroke-linecap="butt" stroke-opacity="0.32" stroke-width="1" target-height="118.99992" target-width="134.00021" target-x="11.999716" target-y="47.999893"></path></g></svg>