<svg width="1381" height="1381" xmlns="http://www.w3.org/2000/svg" xmlns:xlink="http://www.w3.org/1999/xlink" xml:space="preserve" overflow="hidden"><defs><clipPath id="clip0"><rect x="778" y="360" width="1381" height="1381"/></clipPath><radialGradient cx="3826626" cy="3826626" r="5411666" fx="3826626" fy="3826626" gradientUnits="userSpaceOnUse" spreadMethod="pad" id="fill1" gradientTransform="matrix(0.000360892 0 0 0.000360892 778 360)"><stop offset="0" stop-color="#BF9000"/><stop offset="0.015625" stop-color="#C09100"/><stop offset="0.03125" stop-color="#C29300"/><stop offset="0.046875" stop-color="#C49500"/><stop offset="0.0625" stop-color="#C69700"/><stop offset="0.078125" stop-color="#C89900"/><stop offset="0.09375" stop-color="#C99A00"/><stop offset="0.109375" stop-color="#CB9C00"/><stop offset="0.125" stop-color="#CD9E00"/><stop offset="0.140625" stop-color="#CEA000"/><stop offset="0.15625" stop-color="#D0A100"/><stop offset="0.171875" stop-color="#D2A300"/><stop offset="0.1875" stop-color="#D3A400"/><stop offset="0.203125" stop-color="#D5A601"/><stop offset="0.21875" stop-color="#D6A801"/><stop offset="0.234375" stop-color="#D8A901"/><stop offset="0.25" stop-color="#D9AB01"/><stop offset="0.265625" stop-color="#DBAC01"/><stop offset="0.28125" stop-color="#DCAE01"/><stop offset="0.296875" stop-color="#DDAF01"/><stop offset="0.3125" stop-color="#DFB001"/><stop offset="0.328125" stop-color="#E0B201"/><stop offset="0.34375" stop-color="#E1B301"/><stop offset="0.359375" stop-color="#E3B401"/><stop offset="0.375" stop-color="#E4B601"/><stop offset="0.390625" stop-color="#E5B701"/><stop offset="0.40625" stop-color="#E6B801"/><stop offset="0.421875" stop-color="#E8B901"/><stop offset="0.4375" stop-color="#E9BA01"/><stop offset="0.453125" stop-color="#EABC02"/><stop offset="0.46875" stop-color="#EBBD02"/><stop offset="0.484375" stop-color="#ECBE02"/><stop offset="0.5" stop-color="#EDBF02"/><stop offset="0.515625" stop-color="#EEC002"/><stop offset="0.53125" stop-color="#EFC102"/><stop offset="0.546875" stop-color="#F0C202"/><stop offset="0.5625" stop-color="#F1C302"/><stop offset="0.578125" stop-color="#F2C402"/><stop offset="0.59375" stop-color="#F3C402"/><stop offset="0.609375" stop-color="#F4C502"/><stop offset="0.625" stop-color="#F4C602"/><stop offset="0.640625" stop-color="#F5C702"/><stop offset="0.65625" stop-color="#F6C802"/><stop offset="0.671875" stop-color="#F7C802"/><stop offset="0.6875" stop-color="#F7C902"/><stop offset="0.703125" stop-color="#F8CA02"/><stop offset="0.71875" stop-color="#F9CA02"/><stop offset="0.734375" stop-color="#F9CB02"/><stop offset="0.75" stop-color="#FACC02"/><stop offset="0.765625" stop-color="#FACC02"/><stop offset="0.78125" stop-color="#FBCD02"/><stop offset="0.796875" stop-color="#FBCD02"/><stop offset="0.8125" stop-color="#FCCE02"/><stop offset="0.828125" stop-color="#FCCE02"/><stop offset="0.84375" stop-color="#FDCE02"/><stop offset="0.859375" stop-color="#FDCF02"/><stop offset="0.875" stop-color="#FDCF02"/><stop offset="0.890625" stop-color="#FDCF02"/><stop offset="0.90625" stop-color="#FED002"/><stop offset="0.921875" stop-color="#FED002"/><stop offset="0.9375" stop-color="#FED002"/><stop offset="0.953125" stop-color="#FED002"/><stop offset="0.96875" stop-color="#FED002"/><stop offset="0.984375" stop-color="#FED002"/><stop offset="1" stop-color="#FFD103"/></radialGradient><clipPath id="clip2"><rect x="1369" y="927" width="200" height="200"/></clipPath><clipPath id="clip3"><rect x="1369" y="927" width="200" height="200"/></clipPath><clipPath id="clip4"><rect x="1369" y="927" width="200" height="200"/></clipPath></defs><g clip-path="url(#clip0)" transform="translate(-778 -360)"><path d="M778 1050.5C778 669.147 1087.15 360 1468.5 360 1849.85 360 2159 669.147 2159 1050.5 2159 1431.85 1849.85 1741 1468.5 1741 1087.15 1741 778 1431.85 778 1050.5Z" fill="url(#fill1)" fill-rule="evenodd"/><path d="M1337.5 1027 1391.25 919.5 1533.75 919.5 1587.5 1027 1533.75 1134.5 1391.25 1134.5Z" stroke="#FFFFFF" stroke-width="22.9167" stroke-linecap="round" stroke-linejoin="round" stroke-miterlimit="10" fill="#FFFFFF" fill-rule="evenodd"/><path d="M1578.5 890 1632.25 782.5 1774.75 782.5 1828.5 890 1774.75 997.5 1632.25 997.5Z" stroke="#FFFFFF" stroke-width="22.9167" stroke-linecap="round" stroke-linejoin="round" stroke-miterlimit="10" fill="#FFFFFF" fill-rule="evenodd"/><path d="M1583.5 1158.5 1637.5 1050.5 1778.5 1050.5 1832.5 1158.5 1778.5 1266.5 1637.5 1266.5Z" stroke="#FFFFFF" stroke-width="22.9167" stroke-linecap="round" stroke-linejoin="round" stroke-miterlimit="10" fill="#FFFFFF" fill-rule="evenodd"/><path d="M1337.5 758.5 1391.5 650.5 1533.5 650.5 1587.5 758.5 1533.5 866.5 1391.5 866.5Z" stroke="#FFFFFF" stroke-width="22.9167" stroke-linecap="round" stroke-linejoin="round" stroke-miterlimit="10" fill="#FFFFFF" fill-rule="evenodd"/><path d="M1097.5 890 1151.25 782.5 1292.75 782.5 1346.5 890 1292.75 997.5 1151.25 997.5Z" stroke="#FFFFFF" stroke-width="22.9167" stroke-linecap="round" stroke-linejoin="round" stroke-miterlimit="10" fill="#FFFFFF" fill-rule="evenodd"/><path d="M1092.5 1158.5 1146.5 1050.5 1288.5 1050.5 1342.5 1158.5 1288.5 1266.5 1146.5 1266.5Z" stroke="#FFFFFF" stroke-width="22.9167" stroke-linecap="round" stroke-linejoin="round" stroke-miterlimit="10" fill="#FFFFFF" fill-rule="evenodd"/><path d="M1337.5 1290 1391.25 1182.5 1533.75 1182.5 1587.5 1290 1533.75 1397.5 1391.25 1397.5Z" stroke="#FFFFFF" stroke-width="22.9167" stroke-linecap="round" stroke-linejoin="round" stroke-miterlimit="10" fill="#FFFFFF" fill-rule="evenodd"/><g clip-path="url(#clip2)"><g clip-path="url(#clip3)"><g clip-path="url(#clip4)"><path d="M108.385 106.24C71.2805 97.3351 32.6446 114.606 25.8253 139.593 27.5918 146.349 31.7059 153.351 38.6767 160.321 72.2405 193.885 106.525 161.283 110.422 118.778 110.056 114.612 109.388 110.416 108.385 106.24Z" fill="#FFC700" fill-opacity="0.5" transform="matrix(1.00502 0 0 1 1369 927)"/><path d="M101.307 67.4696C104.059 74.6056 106.453 82.3654 108.424 90.5761 122.047 93.8448 134.463 98.2621 144.765 103.587 146.403 100.555 147.581 97.339 148.296 94.0431 146.84 87.5328 143.583 81.3451 138.517 76.2788 128.45 66.2141 113.961 63.2855 101.307 67.4696Z" fill="#FFC700" fill-opacity="0.5" transform="matrix(1.00502 0 0 1 1369 927)"/><path d="M67.1742 178.719C65.0443 178.719 62.9066 178.521 60.7786 178.121 52.0335 176.476 43.5215 171.566 35.478 163.522 27.4344 155.478 22.5235 146.967 20.8795 138.221 19.35 130.083 20.7667 121.808 24.9741 114.291 27.7026 109.417 31.5194 104.926 36.3428 100.911 35.4197 99.2105 34.5452 97.5081 33.7192 95.8096 26.2703 80.4648 23.124 65.9343 24.6185 53.7844 25.3511 47.8397 27.1895 42.4682 30.0851 37.8158 33.1615 32.8758 37.4349 28.7423 42.785 25.5319 47.7134 22.576 52.7292 20.8464 57.6925 20.3936 62.5354 19.9505 67.3432 20.7162 71.9859 22.6635 89.0545 29.8286 103.622 53.1451 112.157 86.8351 145.849 95.3704 169.166 109.938 176.329 127.006 178.278 131.649 179.042 136.459 178.599 141.3 178.146 146.263 176.416 151.279 173.46 156.207 170.25 161.557 166.116 165.831 161.176 168.907 156.526 171.803 151.153 173.643 145.208 174.374 143.239 174.617 141.208 174.737 139.121 174.737 128.328 174.737 116.042 171.517 103.183 165.273 101.484 164.449 99.7838 163.573 98.0814 162.649 94.0644 167.473 89.5753 171.29 84.7013 174.018 79.1569 177.133 73.1928 178.719 67.1742 178.719ZM41.0049 108.853C37.6001 111.875 34.8386 115.198 32.87 118.712 29.6654 124.433 28.6237 130.436 29.7723 136.55 31.0724 143.47 35.1457 150.393 41.8755 157.123 48.6073 163.854 55.5276 167.926 62.4479 169.226 68.5617 170.374 74.5628 169.333 80.286 166.128 83.7996 164.159 87.1247 161.4 90.1447 157.993 80.4842 151.899 71.092 144.411 62.8385 136.158 54.587 127.906 47.0993 118.514 41.0049 108.853ZM103.398 155.238C104.635 155.894 105.883 156.528 107.141 157.14 120.912 163.825 133.695 166.682 144.108 165.399 153.632 164.227 160.899 159.569 165.706 151.557 170.108 144.221 170.856 137.337 167.99 130.512 162.307 116.975 142.44 104.576 114.242 96.7521 116.471 111.207 115.208 126.281 110.548 139.904 108.645 145.468 106.249 150.603 103.398 155.238ZM48.2944 103.453C54.0895 112.742 61.2819 121.804 69.238 129.762 77.1941 137.718 86.256 144.912 95.5472 150.706 98.0911 146.609 100.273 141.984 101.988 136.976 106.586 123.535 107.503 108.513 104.63 94.3695 90.4867 91.4973 75.4645 92.4145 62.0243 97.0125 57.0162 98.7246 52.391 100.909 48.2944 103.453ZM60.3355 29.3078C56.1456 29.3078 51.878 30.6332 47.4432 33.2936 39.4308 38.1015 34.7725 45.3677 33.6007 54.8921 32.3181 65.3047 35.1748 78.0881 41.86 91.8587 42.4644 93.1044 43.0998 94.3521 43.7625 95.6016 48.3974 92.7507 53.5318 90.3546 59.0956 88.452 72.7186 83.7918 87.7913 82.5287 102.248 84.7577 94.424 56.5615 82.0253 36.6945 68.4879 31.0102 65.7886 29.8753 63.0795 29.3078 60.3355 29.3078Z" fill="#3F2704" transform="matrix(1.00502 0 0 1 1369 927)"/><path d="M144.761 108.113C144.061 108.113 143.35 107.95 142.685 107.606 132.737 102.462 120.854 98.2116 107.367 94.9739 105.712 94.5769 104.42 93.2844 104.024 91.6294 100.787 78.1425 96.5383 66.2608 91.3923 56.3108 90.2593 54.1206 91.0892 51.4252 93.2599 50.2533 100.856 46.149 109.771 44.5418 118.362 45.7311 127.249 46.9613 135.308 50.9704 141.667 57.3311 148.026 63.6917 152.037 71.7488 153.267 80.6358 154.454 89.2274 152.849 98.1416 148.745 105.738 147.927 107.25 146.37 108.113 144.761 108.113ZM112.161 86.839C123.432 89.6958 133.633 93.2618 142.582 97.4692 144.419 92.5311 145.031 87.1286 144.304 81.8776 143.348 74.9593 140.223 68.6842 135.269 63.7305 130.316 58.7769 124.041 55.652 117.122 54.6959 111.871 53.969 106.469 54.5812 101.531 56.4177 105.74 65.3668 109.304 75.5675 112.161 86.839ZM135.147 42.1029C133.794 42.1029 132.442 41.5879 131.412 40.5579 130.413 39.559 129.865 38.2337 129.865 36.8228 129.865 35.4119 130.415 34.0846 131.412 33.0876 132.409 32.0907 133.736 31.5407 135.147 31.5407 136.558 31.5407 137.885 32.0907 138.884 33.0876 140.942 35.1457 140.944 38.498 138.884 40.5579L138.882 40.5599C137.852 41.5879 136.5 42.1029 135.147 42.1029ZM160.22 67.1761C158.868 67.1761 157.515 66.6611 156.485 65.6311 155.488 64.6342 154.938 63.3069 154.938 61.896 154.938 60.4851 155.488 59.1578 156.485 58.1609 158.545 56.1009 161.895 56.1029 163.955 58.1609 166.015 60.2208 166.015 63.5731 163.955 65.6331 162.925 66.6611 161.573 67.1761 160.22 67.1761Z" fill="#3F2704" transform="matrix(1.00502 0 0 1 1369 927)"/></g></g></g><text fill="#FFFFFF" font-family="Microsoft YaHei UI,Microsoft YaHei UI_MSFontService,sans-serif" font-weight="400" font-size="50" transform="matrix(1 0 0 1 1291.95 1620)">Hives Platform</text></g></svg>