<?xml version="1.0" standalone="no"?><!DOCTYPE svg PUBLIC "-//W3C//DTD SVG 1.1//EN" "http://www.w3.org/Graphics/SVG/1.1/DTD/svg11.dtd"><svg height="512" legacy-metrics="false" node-id="1" sillyvg="true" template-height="512" template-width="512" version="1.1" viewBox="0 0 512 512" width="512" xmlns="http://www.w3.org/2000/svg" xmlns:xlink="http://www.w3.org/1999/xlink"><defs node-id="54"></defs><path d="M 511.93 256.00 C 511.93 397.35 397.35 511.93 256.00 511.93 C 114.65 511.93 0.07 397.35 0.07 256.00 C 0.07 114.65 114.65 0.07 256.00 0.07 C 397.35 0.07 511.93 114.65 511.93 256.00 Z" fill="#323653" fill-rule="nonzero" id="Background" node-id="2" stroke="none" target-height="511.862" target-width="511.862" target-x="0.069" target-y="0.069"></path><g node-id="168"><path d="M 507.67 209.33 L 379.40 82.48 L 208.65 292.33 L 133.15 328.86 L 122.71 370.14 L 165.00 405.42 L 137.97 439.08 L 205.90 507.00 C 330.32 532.00 456.89 461.20 498.52 337.77 C 512.97 294.89 515.41 250.87 507.67 209.33 Z" fill="#000000" fill-opacity="0.1" fill-rule="nonzero" group-id="1" id="Shadow" node-id="3" stroke-linecap="butt" stroke-opacity="0.1" stroke-width="1" target-height="429.5009" target-width="389.2353" target-x="122.713" target-y="82.479"></path></g><g node-id="169"><g node-id="172"><path d="M 187.05 86.57 C 180.92 88.86 173.94 86.09 171.47 80.40 C 169.00 74.70 171.97 68.22 178.11 65.93 C 184.25 63.64 191.23 66.40 193.69 72.10 C 196.16 77.80 193.19 84.28 187.05 86.57 Z" fill="#e3dff0" fill-rule="nonzero" group-id="2,5" node-id="66" stroke="none" target-height="22.244873" target-width="23.959839" target-x="170.6001" target-y="65.12855"></path><path d="M 208.65 66.52 L 181.63 74.05 L 156.51 85.98 L 183.54 78.45 Z" fill="#e3dff0" fill-rule="nonzero" group-id="2,5" node-id="68" stroke="none" target-height="19.469002" target-width="52.143005" target-x="156.51" target-y="66.515"></path><path d="M 172.10 52.04 L 180.21 77.13 L 193.07 100.45 L 184.95 75.36 Z" fill="#e3dff0" fill-rule="nonzero" group-id="2,5" node-id="70" stroke="none" target-height="48.410004" target-width="20.971008" target-x="172.096" target-y="52.042"></path></g><g node-id="173"><path d="M 31.89 342.44 C 29.55 343.31 26.89 342.26 25.95 340.09 C 25.01 337.92 26.14 335.45 28.48 334.58 C 30.82 333.70 33.48 334.76 34.42 336.93 C 35.36 339.10 34.23 341.57 31.89 342.44 Z" fill="#e3dff0" fill-rule="nonzero" group-id="2,6" node-id="75" stroke="none" target-height="8.473663" target-width="9.066429" target-x="25.651386" target-y="334.27087"></path><path d="M 40.12 334.80 L 29.82 337.67 L 20.25 342.22 L 30.55 339.35 Z" fill="#e3dff0" fill-rule="nonzero" group-id="2,6" node-id="77" stroke="none" target-height="7.4170227" target-width="19.865" target-x="20.252" target-y="334.8"></path><path d="M 26.19 329.29 L 29.28 338.85 L 34.18 347.73 L 31.09 338.17 Z" fill="#e3dff0" fill-rule="nonzero" group-id="2,6" node-id="79" stroke="none" target-height="18.442017" target-width="7.9890003" target-x="26.19" target-y="329.287"></path></g><g node-id="174"><path d="M 360.81 153.30 C 357.33 154.60 353.36 153.03 351.96 149.80 C 350.56 146.56 352.25 142.88 355.73 141.58 C 359.22 140.27 363.19 141.84 364.59 145.08 C 365.99 148.32 364.30 152.00 360.81 153.30 Z" fill="#e3dff0" fill-rule="nonzero" group-id="2,7" node-id="83" stroke="none" target-height="12.555893" target-width="13.52417" target-x="351.5108" target-y="141.16049"></path><path d="M 373.09 141.91 L 357.73 146.19 L 343.46 152.97 L 358.81 148.69 Z" fill="#e3dff0" fill-rule="nonzero" group-id="2,7" node-id="85" stroke="none" target-height="11.063995" target-width="29.632996" target-x="343.456" target-y="141.906"></path><path d="M 352.31 133.68 L 356.92 147.94 L 364.23 161.19 L 359.62 146.94 Z" fill="#e3dff0" fill-rule="nonzero" group-id="2,7" node-id="87" stroke="none" target-height="27.511002" target-width="11.916992" target-x="352.314" target-y="133.681"></path></g></g><g node-id="170"><g node-id="175"><path d="M 381.27 302.74 C 377.75 304.22 373.73 302.44 372.31 298.77 C 370.90 295.10 372.61 290.92 376.13 289.45 C 379.66 287.97 383.68 289.75 385.09 293.42 C 386.51 297.09 384.80 301.27 381.27 302.74 Z" fill="#e3dff0" fill-rule="nonzero" group-id="3,8" node-id="94" stroke="none" target-height="14.248627" target-width="13.691101" target-x="371.85852" target-y="288.97076"></path><path d="M 393.70 289.82 L 378.15 294.67 L 363.71 302.37 L 379.25 297.51 Z" fill="#e3dff0" fill-rule="nonzero" group-id="3,8" node-id="96" stroke="none" target-height="12.54599" target-width="29.982025" target-x="363.714" target-y="289.821"></path><path d="M 372.68 280.49 L 377.34 296.66 L 384.73 311.69 L 380.07 295.52 Z" fill="#e3dff0" fill-rule="nonzero" group-id="3,8" node-id="98" stroke="none" target-height="31.195007" target-width="12.057007" target-x="372.676" target-y="280.494"></path></g><g node-id="176"><path d="M 292.06 467.63 C 290.71 468.19 289.19 467.51 288.64 466.12 C 288.10 464.72 288.76 463.13 290.10 462.56 C 291.44 462.00 292.97 462.68 293.51 464.08 C 294.05 465.48 293.40 467.07 292.06 467.63 Z" fill="#e3dff0" fill-rule="nonzero" group-id="3,9" node-id="103" stroke="none" target-height="5.45932" target-width="5.247589" target-x="288.45523" target-y="462.36725"></path><path d="M 296.79 462.71 L 290.87 464.56 L 285.37 467.49 L 291.29 465.64 Z" fill="#e3dff0" fill-rule="nonzero" group-id="3,9" node-id="105" stroke="none" target-height="4.7789917" target-width="11.423004" target-x="285.367" target-y="462.707"></path><path d="M 288.78 459.15 L 290.56 465.31 L 293.38 471.04 L 291.60 464.88 Z" fill="#e3dff0" fill-rule="nonzero" group-id="3,9" node-id="107" stroke="none" target-height="11.884003" target-width="4.593994" target-x="288.781" target-y="459.154"></path></g><g node-id="177"><path d="M 481.19 345.75 C 479.18 346.59 476.90 345.57 476.10 343.49 C 475.29 341.40 476.26 339.03 478.26 338.19 C 480.27 337.35 482.55 338.36 483.36 340.45 C 484.16 342.54 483.19 344.91 481.19 345.75 Z" fill="#e3dff0" fill-rule="nonzero" group-id="3,10" node-id="111" stroke="none" target-height="8.145813" target-width="7.8286743" target-x="475.8115" target-y="337.89578"></path><path d="M 488.25 338.40 L 479.41 341.16 L 471.21 345.53 L 480.04 342.77 Z" fill="#e3dff0" fill-rule="nonzero" group-id="3,10" node-id="113" stroke="none" target-height="7.128998" target-width="17.039001" target-x="471.206" target-y="338.404"></path><path d="M 476.30 333.10 L 478.95 342.29 L 483.15 350.83 L 480.50 341.64 Z" fill="#e3dff0" fill-rule="nonzero" group-id="3,10" node-id="115" stroke="none" target-height="17.727997" target-width="6.851013" target-x="476.3" target-y="333.104"></path></g></g><g node-id="171"><path d="M 327.23 249.21 C 275.32 325.60 214.52 374.81 191.42 359.12 C 168.33 343.43 191.69 268.77 243.59 192.38 C 295.50 115.99 366.33 73.60 379.40 82.48 C 391.46 90.68 379.13 172.82 327.23 249.21 Z" fill="#f4826d" fill-rule="nonzero" group-id="4" node-id="120" stroke="none" target-height="280.69806" target-width="201.10843" target-x="182.5448" target-y="81.33833"></path><path d="M 367.51 171.18 C 384.74 124.84 387.29 87.84 379.40 82.48 C 370.85 76.67 337.58 92.81 301.07 126.04 L 367.51 171.18 Z" fill="#fec35a" fill-rule="nonzero" group-id="4" node-id="122" stroke="none" target-height="89.83648" target-width="82.570404" target-x="301.071" target-y="81.34351"></path><path d="M 288.08 138.48 L 360.81 187.89 C 362.48 184.00 364.06 180.14 365.54 176.35 L 297.02 129.79 C 294.05 132.57 291.06 135.47 288.08 138.48 Z" fill="#fec35a" fill-rule="nonzero" group-id="4" node-id="124" stroke="none" target-height="58.106003" target-width="77.45999" target-x="288.077" target-y="129.787"></path><path d="M 316.08 225.48 C 316.08 244.28 300.85 259.51 282.05 259.51 C 263.26 259.51 248.02 244.28 248.02 225.48 C 248.02 206.69 263.26 191.45 282.05 191.45 C 300.85 191.45 316.08 206.69 316.08 225.48 Z" fill="#bf5d62" fill-rule="nonzero" group-id="4" node-id="126" stroke="none" target-height="68.06" target-width="68.06001" target-x="248.024" target-y="191.452"></path><path d="M 312.19 225.48 C 312.19 242.13 298.70 255.62 282.06 255.62 C 265.41 255.62 251.91 242.13 251.91 225.48 C 251.91 208.84 265.41 195.34 282.06 195.34 C 298.70 195.34 312.19 208.84 312.19 225.48 Z" fill="#b1bde1" fill-rule="nonzero" group-id="4" node-id="128" stroke="none" target-height="60.28" target-width="60.280014" target-x="251.915" target-y="195.342"></path><path d="M 192.33 289.70 C 180.06 324.25 178.78 350.52 191.42 359.12 C 204.07 367.71 228.02 356.84 255.62 332.71 L 192.33 289.70 Z" fill="#fec35a" fill-rule="nonzero" group-id="4" node-id="130" stroke="none" target-height="72.28226" target-width="73.1031" target-x="182.5219" target-y="289.704"></path><path d="M 183.52 323.19 L 174.41 356.48 L 200.55 374.24 L 228.14 353.52 Z" fill="#d7d7d7" fill-rule="nonzero" group-id="4" node-id="132" stroke="none" target-height="51.04898" target-width="53.733" target-x="174.408" target-y="323.195"></path><g node-id="178"><path d="M 241.75 402.25 L 239.02 344.85 L 253.13 334.32 L 255.87 391.72 Z" fill="#bf5d62" fill-rule="nonzero" group-id="4,11" node-id="136" stroke="none" target-height="67.923004" target-width="16.855988" target-x="239.016" target-y="334.323"></path><path d="M 224.61 415.04 L 221.87 357.64 L 235.99 347.11 L 238.72 404.50 Z" fill="#bf5d62" fill-rule="nonzero" group-id="4,11" node-id="138" stroke="none" target-height="67.923004" target-width="16.854004" target-x="221.871" target-y="347.113"></path><path d="M 207.63 427.70 L 204.89 370.31 L 219.01 359.78 L 221.75 417.17 Z" fill="#bf5d62" fill-rule="nonzero" group-id="4,11" node-id="140" stroke="none" target-height="67.92398" target-width="16.853989" target-x="204.891" target-y="359.777"></path></g><g node-id="179"><path d="M 133.15 328.86 L 187.21 309.40 L 191.53 292.33 L 137.47 311.79 Z" fill="#bf5d62" fill-rule="nonzero" group-id="4,12" node-id="145" stroke="none" target-height="36.534027" target-width="58.380005" target-x="133.151" target-y="292.33"></path><path d="M 127.91 349.60 L 181.97 330.14 L 186.29 313.06 L 132.22 332.53 Z" fill="#bf5d62" fill-rule="nonzero" group-id="4,12" node-id="147" stroke="none" target-height="36.536987" target-width="58.382996" target-x="127.905" target-y="313.065"></path><path d="M 122.71 370.14 L 176.78 350.68 L 181.09 333.60 L 127.03 353.06 Z" fill="#bf5d62" fill-rule="nonzero" group-id="4,12" node-id="149" stroke="none" target-height="36.535004" target-width="58.381004" target-x="122.712" target-y="333.603"></path></g><path d="M 200.38 344.67 L 201.59 345.49 L 193.30 357.67 L 192.09 356.85 Z" fill="#904548" fill-rule="nonzero" group-id="4" node-id="152" stroke-linecap="butt" stroke-width="1.0000286" target-height="13.000732" target-width="9.490601" target-x="192.09492" target-y="344.6671"></path><path d="M 189.27 361.00 L 190.47 361.82 L 179.36 378.17 L 178.16 377.35 Z" fill="#904548" fill-rule="nonzero" group-id="4" node-id="154" stroke-linecap="butt" stroke-width="1.0000223" target-height="17.177338" target-width="12.314713" target-x="178.15657" target-y="360.99664"></path><path d="M 176.27 380.16 L 177.47 380.98 L 168.56 394.10 L 167.35 393.28 Z" fill="#904548" fill-rule="nonzero" group-id="4" node-id="156" stroke-linecap="butt" stroke-width="0.9999989" target-height="13.938965" target-width="10.124771" target-x="167.34935" target-y="380.1627"></path><path d="M 182.31 372.53 C 199.12 384.12 192.46 398.52 190.46 401.48 C 188.46 404.42 176.87 418.10 177.55 422.87 C 171.75 418.15 173.43 405.77 178.72 402.02 C 171.90 406.88 176.36 424.61 152.25 437.03 C 152.26 431.94 159.50 420.80 161.14 418.38 C 159.50 420.80 143.25 431.30 137.97 439.08 C 134.53 433.61 139.40 412.62 148.10 404.43 C 156.80 396.23 151.75 400.37 154.33 397.73 C 148.13 401.67 141.51 406.62 141.04 409.04 C 139.74 404.62 153.49 352.66 182.31 372.53 Z" fill="#fcaf17" fill-rule="nonzero" group-id="4" node-id="158" stroke="none" target-height="71.0116" target-width="56.573013" target-x="136.86877" target-y="368.0664"></path><path d="M 178.41 379.57 C 194.22 388.36 166.68 413.92 153.65 417.41 C 151.35 404.68 159.42 369.02 178.41 379.57 Z" fill="#f15a27" fill-rule="nonzero" group-id="4" node-id="160" stroke="none" target-height="39.78128" target-width="29.853317" target-x="153.30215" target-y="377.6307"></path><path d="M 223.02 311.27 L 224.22 312.09 L 168.09 394.81 L 166.89 393.99 Z" fill="#bf5d62" fill-rule="nonzero" group-id="4" node-id="162" stroke-linecap="butt" stroke-width="1.0000192" target-height="83.539185" target-width="57.336044" target-x="166.88573" target-y="311.2702"></path><path d="M 379.40 82.48 C 379.20 82.34 378.99 82.22 378.76 82.11 L 190.84 358.68 C 191.03 358.83 187.27 365.23 187.27 365.23 C 187.27 365.23 193.90 369.52 200.55 374.24 C 251.47 335.56 269.59 331.05 327.23 249.21 C 377.43 177.92 391.46 90.68 379.40 82.48 Z" fill="#000000" fill-opacity="0.1" fill-rule="nonzero" group-id="4,13" node-id="166" stroke-linecap="butt" stroke-opacity="0.1" stroke-width="1" target-height="292.132" target-width="196.17578" target-x="187.271" target-y="82.112"></path></g></svg>